<?xml version="1.0" encoding="UTF-8" standalone="no"?><svg width="100%" height="100%" viewBox="0 0 1438 478" version="1.1" xmlns="http://www.w3.org/2000/svg" xmlns:xlink="http://www.w3.org/1999/xlink" xml:space="preserve" xmlns:serif="http://www.serif.com/" style="fill-rule:evenodd;clip-rule:evenodd;stroke-linejoin:round;stroke-miterlimit:2;"><rect id="Plan-de-travail1" serif:id="Plan de travail1" x="0" y="0" width="1437" height="477.645" style="fill:none;"/><clipPath id="_clip1"><rect x="0" y="0" width="1437" height="477.645"/></clipPath><g clip-path="url(#_clip1)"><g transform="matrix(3.11909,0.19218,-0.19218,3.11909,-2248.7,-837.594)"><g transform="matrix(0.902164,-0.431393,0.431393,0.902164,-78.5142,372.054)"><text x="781.002px" y="359.126px" style="font-family:'Spellkid-Regular', 'Spellkid';font-size:192px;">D</text></g><g transform="matrix(0.950937,-0.309385,0.309385,0.950937,-59.5627,279.433)"><text x="851.251px" y="327.513px" style="font-family:'Spellkid-Regular', 'Spellkid';font-size:192px;">i</text></g><g transform="matrix(0.975732,-0.218969,0.218969,0.975732,-48.9517,198.437)"><text x="870.759px" y="320.061px" style="font-family:'Spellkid-Regular', 'Spellkid';font-size:192px;">x</text></g><g transform="matrix(0.990854,-0.13494,0.13494,0.990854,-33.206,127.45)"><text x="923.568px" y="308.679px" style="font-family:'Spellkid-Regular', 'Spellkid';font-size:192px;">i</text></g><g transform="matrix(0.997821,-0.065975,0.065975,0.997821,-18.0922,62.9479)"><text x="944.032px" y="305.404px" style="font-family:'Spellkid-Regular', 'Spellkid';font-size:192px;">e</text></g><g transform="matrix(0.992646,0.121055,-0.121055,0.992646,43.8601,-119.628)"><text x="1006.51px" y="301.168px" style="font-family:'Spellkid-Regular', 'Spellkid';font-size:192px;">T</text></g><g transform="matrix(0.98754,0.157367,-0.157367,0.98754,61.3006,-161.508)"><text x="1050.57px" y="306.359px" style="font-family:'Spellkid-Regular', 'Spellkid';font-size:192px;">i</text></g><g transform="matrix(0.963523,0.267626,-0.267626,0.963523,121.489,-275.535)"><text x="1071.52px" y="307.903px" style="font-family:'Spellkid-Regular', 'Spellkid';font-size:192px;">m</text></g><g transform="matrix(0.918256,0.395987,-0.395987,0.918256,223.123,-424.992)"><text x="1140.94px" y="327.936px" style="font-family:'Spellkid-Regular', 'Spellkid';font-size:192px;">e</text></g></g><g transform="matrix(3.11909,0.19218,-0.19218,3.11909,-2258.07,-846.969)"><g transform="matrix(0.902164,-0.431393,0.431393,0.902164,-78.5142,372.054)"><text x="781.002px" y="359.126px" style="font-family:'Spellkid-Regular', 'Spellkid';font-size:192px;fill:#fff;">D</text></g><g transform="matrix(0.950937,-0.309385,0.309385,0.950937,-59.5627,279.433)"><text x="851.251px" y="327.513px" style="font-family:'Spellkid-Regular', 'Spellkid';font-size:192px;fill:#fff;">i</text></g><g transform="matrix(0.975732,-0.218969,0.218969,0.975732,-48.9517,198.437)"><text x="870.759px" y="320.061px" style="font-family:'Spellkid-Regular', 'Spellkid';font-size:192px;fill:#fff;">x</text></g><g transform="matrix(0.990854,-0.13494,0.13494,0.990854,-33.206,127.45)"><text x="923.568px" y="308.679px" style="font-family:'Spellkid-Regular', 'Spellkid';font-size:192px;fill:#fff;">i</text></g><g transform="matrix(0.997821,-0.065975,0.065975,0.997821,-18.0922,62.9479)"><text x="944.032px" y="305.404px" style="font-family:'Spellkid-Regular', 'Spellkid';font-size:192px;fill:#fff;">e</text></g><g transform="matrix(0.992646,0.121055,-0.121055,0.992646,43.8601,-119.628)"><text x="1006.51px" y="301.168px" style="font-family:'Spellkid-Regular', 'Spellkid';font-size:192px;fill:#fff;">T</text></g><g transform="matrix(0.98754,0.157367,-0.157367,0.98754,61.3006,-161.508)"><text x="1050.57px" y="306.359px" style="font-family:'Spellkid-Regular', 'Spellkid';font-size:192px;fill:#fff;">i</text></g><g transform="matrix(0.963523,0.267626,-0.267626,0.963523,121.489,-275.535)"><text x="1071.52px" y="307.903px" style="font-family:'Spellkid-Regular', 'Spellkid';font-size:192px;fill:#fff;">m</text></g><g transform="matrix(0.918256,0.395987,-0.395987,0.918256,223.123,-424.992)"><text x="1140.94px" y="327.936px" style="font-family:'Spellkid-Regular', 'Spellkid';font-size:192px;fill:#fff;">e</text></g></g><g><g id="Calque1"><g transform="matrix(3.125,0,0,3.125,-320.171,-1282)"><text x="243.958px" y="553.184px" style="font-family:'ArialNarrow', 'Arial Narrow', sans-serif;font-stretch:condensed;font-size:24px;">T<tspan x="255.266px 261.817px " y="553.184px 553.184px ">ra</tspan>diti</text><text x="297.923px" y="553.184px" style="font-family:'ArialNarrow', 'Arial Narrow', sans-serif;font-stretch:condensed;font-size:24px;">o</text><text x="308.628px" y="553.184px" style="font-family:'ArialNarrow', 'Arial Narrow', sans-serif;font-stretch:condensed;font-size:24px;">nal Jazz Band</text></g><g transform="matrix(3.125,0,0,3.125,-323.296,-1285.13)"><text x="243.958px" y="553.184px" style="font-family:'ArialNarrow', 'Arial Narrow', sans-serif;font-stretch:condensed;font-size:24px;fill:#fff;">T<tspan x="255.266px 261.817px " y="553.184px 553.184px ">ra</tspan>diti</text><text x="297.923px" y="553.184px" style="font-family:'ArialNarrow', 'Arial Narrow', sans-serif;font-stretch:condensed;font-size:24px;fill:#fff;">o</text><text x="308.628px" y="553.184px" style="font-family:'ArialNarrow', 'Arial Narrow', sans-serif;font-stretch:condensed;font-size:24px;fill:#fff;">nal Jazz Band</text></g></g><g id="Calque2"><path d="M352.657,386.681l8.348,25.692l27.014,0l-21.855,15.879l8.348,25.693l-21.855,-15.879l-21.856,15.879l8.348,-25.693l-21.855,-15.879l27.015,0l8.348,-25.692Z"/><path d="M349.532,383.556l8.348,25.692l27.014,0l-21.855,15.879l8.348,25.693l-21.855,-15.879l-21.856,15.879l8.348,-25.693l-21.855,-15.879l27.015,0l8.348,-25.692Z" style="fill:#fff;"/></g><g id="Calque3"><path d="M1112.03,386.681l8.348,25.692l27.014,0l-21.855,15.879l8.348,25.693l-21.855,-15.879l-21.856,15.879l8.348,-25.693l-21.855,-15.879l27.015,0l8.348,-25.692Z"/><path d="M1108.91,383.556l8.348,25.692l27.014,0l-21.855,15.879l8.348,25.693l-21.855,-15.879l-21.856,15.879l8.348,-25.693l-21.855,-15.879l27.015,0l8.348,-25.692Z" style="fill:#fff;"/></g></g></g></svg>